<?xml version="1.0" encoding="UTF-8" standalone="no"?>
<!DOCTYPE svg PUBLIC "-//W3C//DTD SVG 1.1//EN"
 "http://www.w3.org/Graphics/SVG/1.1/DTD/svg11.dtd">
<!-- Generated by graphviz version 2.38.0 (20140413.2041)
 -->
<!-- Title: %3 Pages: 1 -->
<svg width="1130pt" height="694pt"
 viewBox="0.00 0.00 1130.15 693.87" xmlns="http://www.w3.org/2000/svg" xmlns:xlink="http://www.w3.org/1999/xlink">
<g id="graph0" class="graph" transform="scale(1 1) rotate(0) translate(4 689.874)">
<title>%3</title>
<polygon fill="white" stroke="none" points="-4,4 -4,-689.874 1126.15,-689.874 1126.15,4 -4,4"/>
<!-- &#45;8671957511972956676 -->
<g id="node1" class="node"><title>&#45;8671957511972956676</title>
<polygon fill="none" stroke="black" points="54,-528.479 0,-528.479 0,-492.479 54,-492.479 54,-528.479"/>
<text text-anchor="middle" x="27" y="-506.779" font-family="Times New Roman,serif" font-size="14.00">(0, 0)</text>
</g>
<!-- &#45;2061537632253674735 -->
<g id="node2" class="node"><title>&#45;2061537632253674735</title>
<ellipse fill="none" stroke="black" cx="27" cy="-410.333" rx="24.8972" ry="24.8972"/>
<text text-anchor="middle" x="27" y="-406.633" font-family="Times New Roman,serif" font-size="14.00">add</text>
</g>
<!-- &#45;2061537632253674735&#45;&gt;&#45;8671957511972956676 -->
<g id="edge1" class="edge"><title>&#45;2061537632253674735&#45;&gt;&#45;8671957511972956676</title>
<path fill="none" stroke="black" d="M27,-435.091C27,-449.334 27,-467.495 27,-482.307"/>
<polygon fill="black" stroke="black" points="23.5001,-482.397 27,-492.397 30.5001,-482.397 23.5001,-482.397"/>
</g>
<!-- &#45;3578971403388289812 -->
<g id="node3" class="node"><title>&#45;3578971403388289812</title>
<polygon fill="none" stroke="black" points="59,-127.895 5,-127.895 5,-91.895 59,-91.895 59,-127.895"/>
<text text-anchor="middle" x="32" y="-106.195" font-family="Times New Roman,serif" font-size="14.00">(0, 0)</text>
</g>
<!-- &#45;3578971403388289812&#45;&gt;&#45;2061537632253674735 -->
<g id="edge2" class="edge"><title>&#45;3578971403388289812&#45;&gt;&#45;2061537632253674735</title>
<path fill="none" stroke="black" d="M24.5203,-128.191C20.5271,-138.373 16.0271,-151.623 14,-163.895 1.61943,-238.848 12.7464,-328.255 20.6722,-375.761"/>
<polygon fill="black" stroke="black" points="17.2543,-376.537 22.404,-385.796 24.1524,-375.346 17.2543,-376.537"/>
</g>
<!-- 1271787006233232931 -->
<g id="node46" class="node"><title>1271787006233232931</title>
<ellipse fill="none" stroke="black" cx="69" cy="-210.041" rx="46.2923" ry="46.2923"/>
<text text-anchor="middle" x="69" y="-206.341" font-family="Times New Roman,serif" font-size="14.00">transpose</text>
</g>
<!-- &#45;3578971403388289812&#45;&gt;1271787006233232931 -->
<g id="edge38" class="edge"><title>&#45;3578971403388289812&#45;&gt;1271787006233232931</title>
<path fill="none" stroke="black" d="M38.4449,-127.991C41.5202,-136.148 45.3826,-146.394 49.3168,-156.829"/>
<polygon fill="black" stroke="black" points="46.1267,-158.289 52.9293,-166.412 52.6767,-155.82 46.1267,-158.289"/>
</g>
<!-- 7615837314608944022 -->
<g id="node4" class="node"><title>7615837314608944022</title>
<polygon fill="none" stroke="black" points="86,-328.187 32,-328.187 32,-292.187 86,-292.187 86,-328.187"/>
<text text-anchor="middle" x="59" y="-306.487" font-family="Times New Roman,serif" font-size="14.00">(0, 0)</text>
</g>
<!-- 7615837314608944022&#45;&gt;&#45;2061537632253674735 -->
<g id="edge3" class="edge"><title>7615837314608944022&#45;&gt;&#45;2061537632253674735</title>
<path fill="none" stroke="black" d="M53.426,-328.283C49.0663,-341.654 42.8773,-360.636 37.5847,-376.869"/>
<polygon fill="black" stroke="black" points="34.2017,-375.954 34.4294,-386.546 40.8569,-378.124 34.2017,-375.954"/>
</g>
<!-- &#45;8671957511974121725 -->
<g id="node5" class="node"><title>&#45;8671957511974121725</title>
<polygon fill="none" stroke="black" points="244,-528.479 190,-528.479 190,-492.479 244,-492.479 244,-528.479"/>
<text text-anchor="middle" x="217" y="-506.779" font-family="Times New Roman,serif" font-size="14.00">(0, 1)</text>
</g>
<!-- 1348213013372013890 -->
<g id="node6" class="node"><title>1348213013372013890</title>
<ellipse fill="none" stroke="black" cx="217" cy="-410.333" rx="24.8972" ry="24.8972"/>
<text text-anchor="middle" x="217" y="-406.633" font-family="Times New Roman,serif" font-size="14.00">add</text>
</g>
<!-- 1348213013372013890&#45;&gt;&#45;8671957511974121725 -->
<g id="edge4" class="edge"><title>1348213013372013890&#45;&gt;&#45;8671957511974121725</title>
<path fill="none" stroke="black" d="M217,-435.091C217,-449.334 217,-467.495 217,-482.307"/>
<polygon fill="black" stroke="black" points="213.5,-482.397 217,-492.397 220.5,-482.397 213.5,-482.397"/>
</g>
<!-- &#45;3578971403389454861 -->
<g id="node7" class="node"><title>&#45;3578971403389454861</title>
<polygon fill="none" stroke="black" points="333,-328.187 279,-328.187 279,-292.187 333,-292.187 333,-328.187"/>
<text text-anchor="middle" x="306" y="-306.487" font-family="Times New Roman,serif" font-size="14.00">(0, 1)</text>
</g>
<!-- &#45;3578971403389454861&#45;&gt;1348213013372013890 -->
<g id="edge5" class="edge"><title>&#45;3578971403389454861&#45;&gt;1348213013372013890</title>
<path fill="none" stroke="black" d="M286.682,-328.393C275.787,-338.436 262.164,-351.578 251,-364.187 246.28,-369.517 241.504,-375.453 237.084,-381.223"/>
<polygon fill="black" stroke="black" points="234.102,-379.365 230.908,-389.467 239.705,-383.562 234.102,-379.365"/>
</g>
<!-- &#45;9127939735086499642 -->
<g id="node49" class="node"><title>&#45;9127939735086499642</title>
<ellipse fill="none" stroke="black" cx="306" cy="-410.333" rx="46.2923" ry="46.2923"/>
<text text-anchor="middle" x="306" y="-406.633" font-family="Times New Roman,serif" font-size="14.00">transpose</text>
</g>
<!-- &#45;3578971403389454861&#45;&gt;&#45;9127939735086499642 -->
<g id="edge44" class="edge"><title>&#45;3578971403389454861&#45;&gt;&#45;9127939735086499642</title>
<path fill="none" stroke="black" d="M306,-328.283C306,-335.623 306,-344.654 306,-353.993"/>
<polygon fill="black" stroke="black" points="302.5,-354.183 306,-364.183 309.5,-354.183 302.5,-354.183"/>
</g>
<!-- 7615837314607778973 -->
<g id="node8" class="node"><title>7615837314607778973</title>
<polygon fill="none" stroke="black" points="244,-328.187 190,-328.187 190,-292.187 244,-292.187 244,-328.187"/>
<text text-anchor="middle" x="217" y="-306.487" font-family="Times New Roman,serif" font-size="14.00">(0, 1)</text>
</g>
<!-- 7615837314607778973&#45;&gt;1348213013372013890 -->
<g id="edge6" class="edge"><title>7615837314607778973&#45;&gt;1348213013372013890</title>
<path fill="none" stroke="black" d="M217,-328.283C217,-341.258 217,-359.515 217,-375.418"/>
<polygon fill="black" stroke="black" points="213.5,-375.449 217,-385.449 220.5,-375.449 213.5,-375.449"/>
</g>
<!-- &#45;8671957511970626578 -->
<g id="node9" class="node"><title>&#45;8671957511970626578</title>
<polygon fill="none" stroke="black" points="485,-685.874 431,-685.874 431,-649.874 485,-649.874 485,-685.874"/>
<text text-anchor="middle" x="458" y="-664.174" font-family="Times New Roman,serif" font-size="14.00">(0, 2)</text>
</g>
<!-- &#45;4544169529778194885 -->
<g id="node10" class="node"><title>&#45;4544169529778194885</title>
<ellipse fill="none" stroke="black" cx="458" cy="-589.176" rx="24.8972" ry="24.8972"/>
<text text-anchor="middle" x="458" y="-585.476" font-family="Times New Roman,serif" font-size="14.00">add</text>
</g>
<!-- &#45;4544169529778194885&#45;&gt;&#45;8671957511970626578 -->
<g id="edge7" class="edge"><title>&#45;4544169529778194885&#45;&gt;&#45;8671957511970626578</title>
<path fill="none" stroke="black" d="M458,-614.024C458,-622.186 458,-631.377 458,-639.778"/>
<polygon fill="black" stroke="black" points="454.5,-639.858 458,-649.858 461.5,-639.859 454.5,-639.858"/>
</g>
<!-- 7615837314606613924 -->
<g id="node11" class="node"><title>7615837314606613924</title>
<polygon fill="none" stroke="black" points="562,-528.479 508,-528.479 508,-492.479 562,-492.479 562,-528.479"/>
<text text-anchor="middle" x="535" y="-506.779" font-family="Times New Roman,serif" font-size="14.00">(0, 2)</text>
</g>
<!-- 7615837314606613924&#45;&gt;&#45;4544169529778194885 -->
<g id="edge8" class="edge"><title>7615837314606613924&#45;&gt;&#45;4544169529778194885</title>
<path fill="none" stroke="black" d="M517.911,-528.5C507.444,-538.927 493.88,-552.437 482.307,-563.965"/>
<polygon fill="black" stroke="black" points="479.656,-561.665 475.041,-571.202 484.596,-566.625 479.656,-561.665"/>
</g>
<!-- &#45;3578971403385959714 -->
<g id="node12" class="node"><title>&#45;3578971403385959714</title>
<polygon fill="none" stroke="black" points="444,-127.895 390,-127.895 390,-91.895 444,-91.895 444,-127.895"/>
<text text-anchor="middle" x="417" y="-106.195" font-family="Times New Roman,serif" font-size="14.00">(0, 2)</text>
</g>
<!-- &#45;3578971403385959714&#45;&gt;&#45;4544169529778194885 -->
<g id="edge9" class="edge"><title>&#45;3578971403385959714&#45;&gt;&#45;4544169529778194885</title>
<path fill="none" stroke="black" d="M410.115,-128.309C406.32,-138.53 401.82,-151.78 399,-163.895 384.235,-227.323 380,-244.063 380,-309.187 380,-309.187 380,-309.187 380,-411.333 380,-468.319 414.325,-527.522 437.435,-560.922"/>
<polygon fill="black" stroke="black" points="434.691,-563.104 443.329,-569.239 440.402,-559.056 434.691,-563.104"/>
</g>
<!-- 3471570758706085433 -->
<g id="node52" class="node"><title>3471570758706085433</title>
<ellipse fill="none" stroke="black" cx="454" cy="-210.041" rx="46.2923" ry="46.2923"/>
<text text-anchor="middle" x="454" y="-206.341" font-family="Times New Roman,serif" font-size="14.00">transpose</text>
</g>
<!-- &#45;3578971403385959714&#45;&gt;3471570758706085433 -->
<g id="edge50" class="edge"><title>&#45;3578971403385959714&#45;&gt;3471570758706085433</title>
<path fill="none" stroke="black" d="M423.445,-127.991C426.52,-136.148 430.383,-146.394 434.317,-156.829"/>
<polygon fill="black" stroke="black" points="431.127,-158.289 437.929,-166.412 437.677,-155.82 431.127,-158.289"/>
</g>
<!-- &#45;8671958773169955499 -->
<g id="node13" class="node"><title>&#45;8671958773169955499</title>
<polygon fill="none" stroke="black" points="248,-685.874 194,-685.874 194,-649.874 248,-649.874 248,-685.874"/>
<text text-anchor="middle" x="221" y="-664.174" font-family="Times New Roman,serif" font-size="14.00">(1, 0)</text>
</g>
<!-- &#45;391794461403832372 -->
<g id="node14" class="node"><title>&#45;391794461403832372</title>
<ellipse fill="none" stroke="black" cx="221" cy="-589.176" rx="24.8972" ry="24.8972"/>
<text text-anchor="middle" x="221" y="-585.476" font-family="Times New Roman,serif" font-size="14.00">add</text>
</g>
<!-- &#45;391794461403832372&#45;&gt;&#45;8671958773169955499 -->
<g id="edge10" class="edge"><title>&#45;391794461403832372&#45;&gt;&#45;8671958773169955499</title>
<path fill="none" stroke="black" d="M221,-614.024C221,-622.186 221,-631.377 221,-639.778"/>
<polygon fill="black" stroke="black" points="217.5,-639.858 221,-649.858 224.5,-639.859 217.5,-639.858"/>
</g>
<!-- &#45;3578972664585288635 -->
<g id="node15" class="node"><title>&#45;3578972664585288635</title>
<polygon fill="none" stroke="black" points="207,-127.895 153,-127.895 153,-91.895 207,-91.895 207,-127.895"/>
<text text-anchor="middle" x="180" y="-106.195" font-family="Times New Roman,serif" font-size="14.00">(1, 0)</text>
</g>
<!-- &#45;3578972664585288635&#45;&gt;&#45;391794461403832372 -->
<g id="edge11" class="edge"><title>&#45;3578972664585288635&#45;&gt;&#45;391794461403832372</title>
<path fill="none" stroke="black" d="M173.115,-128.309C169.32,-138.53 164.82,-151.78 162,-163.895 147.235,-227.323 143,-244.063 143,-309.187 143,-309.187 143,-309.187 143,-411.333 143,-468.319 177.325,-527.522 200.435,-560.922"/>
<polygon fill="black" stroke="black" points="197.691,-563.104 206.329,-569.239 203.402,-559.056 197.691,-563.104"/>
</g>
<!-- 4681270532216099156 -->
<g id="node47" class="node"><title>4681270532216099156</title>
<ellipse fill="none" stroke="black" cx="217" cy="-210.041" rx="46.2923" ry="46.2923"/>
<text text-anchor="middle" x="217" y="-206.341" font-family="Times New Roman,serif" font-size="14.00">transpose</text>
</g>
<!-- &#45;3578972664585288635&#45;&gt;4681270532216099156 -->
<g id="edge40" class="edge"><title>&#45;3578972664585288635&#45;&gt;4681270532216099156</title>
<path fill="none" stroke="black" d="M186.445,-127.991C189.52,-136.148 193.383,-146.394 197.317,-156.829"/>
<polygon fill="black" stroke="black" points="194.127,-158.289 200.929,-166.412 200.677,-155.82 194.127,-158.289"/>
</g>
<!-- 7615836053411945199 -->
<g id="node16" class="node"><title>7615836053411945199</title>
<polygon fill="none" stroke="black" points="325,-528.479 271,-528.479 271,-492.479 325,-492.479 325,-528.479"/>
<text text-anchor="middle" x="298" y="-506.779" font-family="Times New Roman,serif" font-size="14.00">(1, 0)</text>
</g>
<!-- 7615836053411945199&#45;&gt;&#45;391794461403832372 -->
<g id="edge12" class="edge"><title>7615836053411945199&#45;&gt;&#45;391794461403832372</title>
<path fill="none" stroke="black" d="M280.911,-528.5C270.444,-538.927 256.88,-552.437 245.307,-563.965"/>
<polygon fill="black" stroke="black" points="242.656,-561.665 238.041,-571.202 247.596,-566.625 242.656,-561.665"/>
</g>
<!-- &#45;8671958773168790450 -->
<g id="node17" class="node"><title>&#45;8671958773168790450</title>
<polygon fill="none" stroke="black" points="684,-528.479 630,-528.479 630,-492.479 684,-492.479 684,-528.479"/>
<text text-anchor="middle" x="657" y="-506.779" font-family="Times New Roman,serif" font-size="14.00">(1, 1)</text>
</g>
<!-- &#45;3077741039440688997 -->
<g id="node18" class="node"><title>&#45;3077741039440688997</title>
<ellipse fill="none" stroke="black" cx="657" cy="-410.333" rx="24.8972" ry="24.8972"/>
<text text-anchor="middle" x="657" y="-406.633" font-family="Times New Roman,serif" font-size="14.00">add</text>
</g>
<!-- &#45;3077741039440688997&#45;&gt;&#45;8671958773168790450 -->
<g id="edge13" class="edge"><title>&#45;3077741039440688997&#45;&gt;&#45;8671958773168790450</title>
<path fill="none" stroke="black" d="M657,-435.091C657,-449.334 657,-467.495 657,-482.307"/>
<polygon fill="black" stroke="black" points="653.5,-482.397 657,-492.397 660.5,-482.397 653.5,-482.397"/>
</g>
<!-- 7615836053413110248 -->
<g id="node19" class="node"><title>7615836053413110248</title>
<polygon fill="none" stroke="black" points="709,-328.187 655,-328.187 655,-292.187 709,-292.187 709,-328.187"/>
<text text-anchor="middle" x="682" y="-306.487" font-family="Times New Roman,serif" font-size="14.00">(1, 1)</text>
</g>
<!-- 7615836053413110248&#45;&gt;&#45;3077741039440688997 -->
<g id="edge14" class="edge"><title>7615836053413110248&#45;&gt;&#45;3077741039440688997</title>
<path fill="none" stroke="black" d="M677.645,-328.283C674.294,-341.438 669.56,-360.023 665.47,-376.079"/>
<polygon fill="black" stroke="black" points="661.974,-375.628 662.897,-386.182 668.757,-377.356 661.974,-375.628"/>
</g>
<!-- &#45;3578972664584123586 -->
<g id="node20" class="node"><title>&#45;3578972664584123586</title>
<polygon fill="none" stroke="black" points="681,-127.895 627,-127.895 627,-91.895 681,-91.895 681,-127.895"/>
<text text-anchor="middle" x="654" y="-106.195" font-family="Times New Roman,serif" font-size="14.00">(1, 1)</text>
</g>
<!-- &#45;3578972664584123586&#45;&gt;&#45;3077741039440688997 -->
<g id="edge15" class="edge"><title>&#45;3578972664584123586&#45;&gt;&#45;3077741039440688997</title>
<path fill="none" stroke="black" d="M646.52,-128.191C642.527,-138.373 638.027,-151.623 636,-163.895 623.559,-239.213 638.677,-328.824 648.971,-376.179"/>
<polygon fill="black" stroke="black" points="645.608,-377.18 651.21,-386.173 652.439,-375.65 645.608,-377.18"/>
</g>
<!-- &#45;606867696826561499 -->
<g id="node50" class="node"><title>&#45;606867696826561499</title>
<ellipse fill="none" stroke="black" cx="691" cy="-210.041" rx="46.2923" ry="46.2923"/>
<text text-anchor="middle" x="691" y="-206.341" font-family="Times New Roman,serif" font-size="14.00">transpose</text>
</g>
<!-- &#45;3578972664584123586&#45;&gt;&#45;606867696826561499 -->
<g id="edge46" class="edge"><title>&#45;3578972664584123586&#45;&gt;&#45;606867696826561499</title>
<path fill="none" stroke="black" d="M660.445,-127.991C663.52,-136.148 667.383,-146.394 671.317,-156.829"/>
<polygon fill="black" stroke="black" points="668.127,-158.289 674.929,-166.412 674.677,-155.82 668.127,-158.289"/>
</g>
<!-- &#45;8671958773172285597 -->
<g id="node21" class="node"><title>&#45;8671958773172285597</title>
<polygon fill="none" stroke="black" points="869,-685.874 815,-685.874 815,-649.874 869,-649.874 869,-685.874"/>
<text text-anchor="middle" x="842" y="-664.174" font-family="Times New Roman,serif" font-size="14.00">(1, 2)</text>
</g>
<!-- &#45;4615081082871491422 -->
<g id="node22" class="node"><title>&#45;4615081082871491422</title>
<ellipse fill="none" stroke="black" cx="842" cy="-589.176" rx="24.8972" ry="24.8972"/>
<text text-anchor="middle" x="842" y="-585.476" font-family="Times New Roman,serif" font-size="14.00">add</text>
</g>
<!-- &#45;4615081082871491422&#45;&gt;&#45;8671958773172285597 -->
<g id="edge16" class="edge"><title>&#45;4615081082871491422&#45;&gt;&#45;8671958773172285597</title>
<path fill="none" stroke="black" d="M842,-614.024C842,-622.186 842,-631.377 842,-639.778"/>
<polygon fill="black" stroke="black" points="838.5,-639.858 842,-649.858 845.5,-639.859 838.5,-639.858"/>
</g>
<!-- 7615836053414275297 -->
<g id="node23" class="node"><title>7615836053414275297</title>
<polygon fill="none" stroke="black" points="947,-528.479 893,-528.479 893,-492.479 947,-492.479 947,-528.479"/>
<text text-anchor="middle" x="920" y="-506.779" font-family="Times New Roman,serif" font-size="14.00">(1, 2)</text>
</g>
<!-- 7615836053414275297&#45;&gt;&#45;4615081082871491422 -->
<g id="edge17" class="edge"><title>7615836053414275297&#45;&gt;&#45;4615081082871491422</title>
<path fill="none" stroke="black" d="M902.689,-528.5C892.086,-538.927 878.346,-552.437 866.622,-563.965"/>
<polygon fill="black" stroke="black" points="863.939,-561.695 859.262,-571.202 868.847,-566.687 863.939,-561.695"/>
</g>
<!-- &#45;3578972664587618733 -->
<g id="node24" class="node"><title>&#45;3578972664587618733</title>
<polygon fill="none" stroke="black" points="829,-127.895 775,-127.895 775,-91.895 829,-91.895 829,-127.895"/>
<text text-anchor="middle" x="802" y="-106.195" font-family="Times New Roman,serif" font-size="14.00">(1, 2)</text>
</g>
<!-- &#45;3578972664587618733&#45;&gt;&#45;4615081082871491422 -->
<g id="edge18" class="edge"><title>&#45;3578972664587618733&#45;&gt;&#45;4615081082871491422</title>
<path fill="none" stroke="black" d="M795.115,-128.309C791.32,-138.53 786.82,-151.78 784,-163.895 769.235,-227.323 765,-244.063 765,-309.187 765,-309.187 765,-309.187 765,-411.333 765,-468.047 798.702,-527.122 821.513,-560.611"/>
<polygon fill="black" stroke="black" points="818.743,-562.757 827.336,-568.955 824.484,-558.752 818.743,-562.757"/>
</g>
<!-- 2509854651549418858 -->
<g id="node53" class="node"><title>2509854651549418858</title>
<ellipse fill="none" stroke="black" cx="839" cy="-210.041" rx="46.2923" ry="46.2923"/>
<text text-anchor="middle" x="839" y="-206.341" font-family="Times New Roman,serif" font-size="14.00">transpose</text>
</g>
<!-- &#45;3578972664587618733&#45;&gt;2509854651549418858 -->
<g id="edge52" class="edge"><title>&#45;3578972664587618733&#45;&gt;2509854651549418858</title>
<path fill="none" stroke="black" d="M808.445,-127.991C811.52,-136.148 815.383,-146.394 819.317,-156.829"/>
<polygon fill="black" stroke="black" points="816.127,-158.289 822.929,-166.412 822.677,-155.82 816.127,-158.289"/>
</g>
<!-- &#45;8671960034366954322 -->
<g id="node25" class="node"><title>&#45;8671960034366954322</title>
<polygon fill="none" stroke="black" points="481,-528.479 427,-528.479 427,-492.479 481,-492.479 481,-528.479"/>
<text text-anchor="middle" x="454" y="-506.779" font-family="Times New Roman,serif" font-size="14.00">(2, 0)</text>
</g>
<!-- 9074288718229726971 -->
<g id="node26" class="node"><title>9074288718229726971</title>
<ellipse fill="none" stroke="black" cx="454" cy="-410.333" rx="24.8972" ry="24.8972"/>
<text text-anchor="middle" x="454" y="-406.633" font-family="Times New Roman,serif" font-size="14.00">add</text>
</g>
<!-- 9074288718229726971&#45;&gt;&#45;8671960034366954322 -->
<g id="edge19" class="edge"><title>9074288718229726971&#45;&gt;&#45;8671960034366954322</title>
<path fill="none" stroke="black" d="M454,-435.091C454,-449.334 454,-467.495 454,-482.307"/>
<polygon fill="black" stroke="black" points="450.5,-482.397 454,-492.397 457.5,-482.397 450.5,-482.397"/>
</g>
<!-- 7615839837002941668 -->
<g id="node27" class="node"><title>7615839837002941668</title>
<polygon fill="none" stroke="black" points="481,-328.187 427,-328.187 427,-292.187 481,-292.187 481,-328.187"/>
<text text-anchor="middle" x="454" y="-306.487" font-family="Times New Roman,serif" font-size="14.00">(2, 0)</text>
</g>
<!-- 7615839837002941668&#45;&gt;9074288718229726971 -->
<g id="edge20" class="edge"><title>7615839837002941668&#45;&gt;9074288718229726971</title>
<path fill="none" stroke="black" d="M454,-328.283C454,-341.258 454,-359.515 454,-375.418"/>
<polygon fill="black" stroke="black" points="450.5,-375.449 454,-385.449 457.5,-375.449 450.5,-375.449"/>
</g>
<!-- &#45;3578973925782287458 -->
<g id="node28" class="node"><title>&#45;3578973925782287458</title>
<polygon fill="none" stroke="black" points="570,-328.187 516,-328.187 516,-292.187 570,-292.187 570,-328.187"/>
<text text-anchor="middle" x="543" y="-306.487" font-family="Times New Roman,serif" font-size="14.00">(2, 0)</text>
</g>
<!-- &#45;3578973925782287458&#45;&gt;9074288718229726971 -->
<g id="edge21" class="edge"><title>&#45;3578973925782287458&#45;&gt;9074288718229726971</title>
<path fill="none" stroke="black" d="M523.682,-328.393C512.787,-338.436 499.164,-351.578 488,-364.187 483.28,-369.517 478.504,-375.453 474.084,-381.223"/>
<polygon fill="black" stroke="black" points="471.102,-379.365 467.908,-389.467 476.705,-383.562 471.102,-379.365"/>
</g>
<!-- 3734941467144735481 -->
<g id="node48" class="node"><title>3734941467144735481</title>
<ellipse fill="none" stroke="black" cx="543" cy="-410.333" rx="46.2923" ry="46.2923"/>
<text text-anchor="middle" x="543" y="-406.633" font-family="Times New Roman,serif" font-size="14.00">transpose</text>
</g>
<!-- &#45;3578973925782287458&#45;&gt;3734941467144735481 -->
<g id="edge42" class="edge"><title>&#45;3578973925782287458&#45;&gt;3734941467144735481</title>
<path fill="none" stroke="black" d="M543,-328.283C543,-335.623 543,-344.654 543,-353.993"/>
<polygon fill="black" stroke="black" points="539.5,-354.183 543,-364.183 546.5,-354.183 539.5,-354.183"/>
</g>
<!-- &#45;8671960034368119371 -->
<g id="node29" class="node"><title>&#45;8671960034368119371</title>
<polygon fill="none" stroke="black" points="866,-528.479 812,-528.479 812,-492.479 866,-492.479 866,-528.479"/>
<text text-anchor="middle" x="839" y="-506.779" font-family="Times New Roman,serif" font-size="14.00">(2, 1)</text>
</g>
<!-- 8371353057164119596 -->
<g id="node30" class="node"><title>8371353057164119596</title>
<ellipse fill="none" stroke="black" cx="839" cy="-410.333" rx="24.8972" ry="24.8972"/>
<text text-anchor="middle" x="839" y="-406.633" font-family="Times New Roman,serif" font-size="14.00">add</text>
</g>
<!-- 8371353057164119596&#45;&gt;&#45;8671960034368119371 -->
<g id="edge22" class="edge"><title>8371353057164119596&#45;&gt;&#45;8671960034368119371</title>
<path fill="none" stroke="black" d="M839,-435.091C839,-449.334 839,-467.495 839,-482.307"/>
<polygon fill="black" stroke="black" points="835.5,-482.397 839,-492.397 842.5,-482.397 835.5,-482.397"/>
</g>
<!-- 7615839837001776619 -->
<g id="node31" class="node"><title>7615839837001776619</title>
<polygon fill="none" stroke="black" points="866,-328.187 812,-328.187 812,-292.187 866,-292.187 866,-328.187"/>
<text text-anchor="middle" x="839" y="-306.487" font-family="Times New Roman,serif" font-size="14.00">(2, 1)</text>
</g>
<!-- 7615839837001776619&#45;&gt;8371353057164119596 -->
<g id="edge23" class="edge"><title>7615839837001776619&#45;&gt;8371353057164119596</title>
<path fill="none" stroke="black" d="M839,-328.283C839,-341.258 839,-359.515 839,-375.418"/>
<polygon fill="black" stroke="black" points="835.5,-375.449 839,-385.449 842.5,-375.449 835.5,-375.449"/>
</g>
<!-- &#45;3578973925783452507 -->
<g id="node32" class="node"><title>&#45;3578973925783452507</title>
<polygon fill="none" stroke="black" points="955,-328.187 901,-328.187 901,-292.187 955,-292.187 955,-328.187"/>
<text text-anchor="middle" x="928" y="-306.487" font-family="Times New Roman,serif" font-size="14.00">(2, 1)</text>
</g>
<!-- &#45;3578973925783452507&#45;&gt;8371353057164119596 -->
<g id="edge24" class="edge"><title>&#45;3578973925783452507&#45;&gt;8371353057164119596</title>
<path fill="none" stroke="black" d="M908.682,-328.393C897.787,-338.436 884.164,-351.578 873,-364.187 868.28,-369.517 863.504,-375.453 859.084,-381.223"/>
<polygon fill="black" stroke="black" points="856.102,-379.365 852.908,-389.467 861.705,-383.562 856.102,-379.365"/>
</g>
<!-- &#45;5207579592425336192 -->
<g id="node51" class="node"><title>&#45;5207579592425336192</title>
<ellipse fill="none" stroke="black" cx="928" cy="-410.333" rx="46.2923" ry="46.2923"/>
<text text-anchor="middle" x="928" y="-406.633" font-family="Times New Roman,serif" font-size="14.00">transpose</text>
</g>
<!-- &#45;3578973925783452507&#45;&gt;&#45;5207579592425336192 -->
<g id="edge48" class="edge"><title>&#45;3578973925783452507&#45;&gt;&#45;5207579592425336192</title>
<path fill="none" stroke="black" d="M928,-328.283C928,-335.623 928,-344.654 928,-353.993"/>
<polygon fill="black" stroke="black" points="924.5,-354.183 928,-364.183 931.5,-354.183 924.5,-354.183"/>
</g>
<!-- &#45;8671960034369284420 -->
<g id="node33" class="node"><title>&#45;8671960034369284420</title>
<polygon fill="none" stroke="black" points="1068,-528.479 1014,-528.479 1014,-492.479 1068,-492.479 1068,-528.479"/>
<text text-anchor="middle" x="1041" y="-506.779" font-family="Times New Roman,serif" font-size="14.00">(2, 2)</text>
</g>
<!-- &#45;6592124541962114095 -->
<g id="node34" class="node"><title>&#45;6592124541962114095</title>
<ellipse fill="none" stroke="black" cx="1041" cy="-410.333" rx="24.8972" ry="24.8972"/>
<text text-anchor="middle" x="1041" y="-406.633" font-family="Times New Roman,serif" font-size="14.00">add</text>
</g>
<!-- &#45;6592124541962114095&#45;&gt;&#45;8671960034369284420 -->
<g id="edge25" class="edge"><title>&#45;6592124541962114095&#45;&gt;&#45;8671960034369284420</title>
<path fill="none" stroke="black" d="M1041,-435.091C1041,-449.334 1041,-467.495 1041,-482.307"/>
<polygon fill="black" stroke="black" points="1037.5,-482.397 1041,-492.397 1044.5,-482.397 1037.5,-482.397"/>
</g>
<!-- &#45;3578973925784617556 -->
<g id="node35" class="node"><title>&#45;3578973925784617556</title>
<polygon fill="none" stroke="black" points="1066,-127.895 1012,-127.895 1012,-91.895 1066,-91.895 1066,-127.895"/>
<text text-anchor="middle" x="1039" y="-106.195" font-family="Times New Roman,serif" font-size="14.00">(2, 2)</text>
</g>
<!-- &#45;3578973925784617556&#45;&gt;&#45;6592124541962114095 -->
<g id="edge26" class="edge"><title>&#45;3578973925784617556&#45;&gt;&#45;6592124541962114095</title>
<path fill="none" stroke="black" d="M1031.52,-128.191C1027.53,-138.373 1023.03,-151.623 1021,-163.895 1008.56,-239.187 1023.19,-328.809 1033.19,-376.172"/>
<polygon fill="black" stroke="black" points="1029.82,-377.141 1035.37,-386.168 1036.66,-375.653 1029.82,-377.141"/>
</g>
<!-- 1329554733192624483 -->
<g id="node54" class="node"><title>1329554733192624483</title>
<ellipse fill="none" stroke="black" cx="1076" cy="-210.041" rx="46.2923" ry="46.2923"/>
<text text-anchor="middle" x="1076" y="-206.341" font-family="Times New Roman,serif" font-size="14.00">transpose</text>
</g>
<!-- &#45;3578973925784617556&#45;&gt;1329554733192624483 -->
<g id="edge54" class="edge"><title>&#45;3578973925784617556&#45;&gt;1329554733192624483</title>
<path fill="none" stroke="black" d="M1045.44,-127.991C1048.52,-136.148 1052.38,-146.394 1056.32,-156.829"/>
<polygon fill="black" stroke="black" points="1053.13,-158.289 1059.93,-166.412 1059.68,-155.82 1053.13,-158.289"/>
</g>
<!-- 7615839837005271766 -->
<g id="node36" class="node"><title>7615839837005271766</title>
<polygon fill="none" stroke="black" points="1093,-328.187 1039,-328.187 1039,-292.187 1093,-292.187 1093,-328.187"/>
<text text-anchor="middle" x="1066" y="-306.487" font-family="Times New Roman,serif" font-size="14.00">(2, 2)</text>
</g>
<!-- 7615839837005271766&#45;&gt;&#45;6592124541962114095 -->
<g id="edge27" class="edge"><title>7615839837005271766&#45;&gt;&#45;6592124541962114095</title>
<path fill="none" stroke="black" d="M1061.65,-328.283C1058.29,-341.438 1053.56,-360.023 1049.47,-376.079"/>
<polygon fill="black" stroke="black" points="1045.97,-375.628 1046.9,-386.182 1052.76,-377.356 1045.97,-375.628"/>
</g>
<!-- &#45;1547090578632335999 -->
<g id="node37" class="node"><title>&#45;1547090578632335999</title>
<ellipse fill="none" stroke="black" cx="32" cy="-27.9475" rx="27.8951" ry="27.8951"/>
<text text-anchor="middle" x="32" y="-24.2475" font-family="Times New Roman,serif" font-size="14.00">ones</text>
</g>
<!-- &#45;1547090578632335999&#45;&gt;&#45;3578971403388289812 -->
<g id="edge28" class="edge"><title>&#45;1547090578632335999&#45;&gt;&#45;3578971403388289812</title>
<path fill="none" stroke="black" d="M32,-56.0141C32,-64.2034 32,-73.2024 32,-81.4182"/>
<polygon fill="black" stroke="black" points="28.5001,-81.6337 32,-91.6338 35.5001,-81.6338 28.5001,-81.6337"/>
</g>
<!-- 6487219619834225842 -->
<g id="node38" class="node"><title>6487219619834225842</title>
<ellipse fill="none" stroke="black" cx="309" cy="-210.041" rx="27.8951" ry="27.8951"/>
<text text-anchor="middle" x="309" y="-206.341" font-family="Times New Roman,serif" font-size="14.00">ones</text>
</g>
<!-- 6487219619834225842&#45;&gt;&#45;3578971403389454861 -->
<g id="edge29" class="edge"><title>6487219619834225842&#45;&gt;&#45;3578971403389454861</title>
<path fill="none" stroke="black" d="M308.172,-238.12C307.756,-251.73 307.253,-268.186 306.836,-281.835"/>
<polygon fill="black" stroke="black" points="303.33,-281.968 306.523,-292.07 310.327,-282.182 303.33,-281.968"/>
</g>
<!-- &#45;6444634489217361749 -->
<g id="node39" class="node"><title>&#45;6444634489217361749</title>
<ellipse fill="none" stroke="black" cx="417" cy="-27.9475" rx="27.8951" ry="27.8951"/>
<text text-anchor="middle" x="417" y="-24.2475" font-family="Times New Roman,serif" font-size="14.00">ones</text>
</g>
<!-- &#45;6444634489217361749&#45;&gt;&#45;3578971403385959714 -->
<g id="edge30" class="edge"><title>&#45;6444634489217361749&#45;&gt;&#45;3578971403385959714</title>
<path fill="none" stroke="black" d="M417,-56.0141C417,-64.2034 417,-73.2024 417,-81.4182"/>
<polygon fill="black" stroke="black" points="413.5,-81.6337 417,-91.6338 420.5,-81.6338 413.5,-81.6337"/>
</g>
<!-- 5981944636808045116 -->
<g id="node40" class="node"><title>5981944636808045116</title>
<ellipse fill="none" stroke="black" cx="180" cy="-27.9475" rx="27.8951" ry="27.8951"/>
<text text-anchor="middle" x="180" y="-24.2475" font-family="Times New Roman,serif" font-size="14.00">ones</text>
</g>
<!-- 5981944636808045116&#45;&gt;&#45;3578972664585288635 -->
<g id="edge31" class="edge"><title>5981944636808045116&#45;&gt;&#45;3578972664585288635</title>
<path fill="none" stroke="black" d="M180,-56.0141C180,-64.2034 180,-73.2024 180,-81.4182"/>
<polygon fill="black" stroke="black" points="176.5,-81.6337 180,-91.6338 183.5,-81.6338 176.5,-81.6337"/>
</g>
<!-- 688033622202996491 -->
<g id="node41" class="node"><title>688033622202996491</title>
<ellipse fill="none" stroke="black" cx="654" cy="-27.9475" rx="27.8951" ry="27.8951"/>
<text text-anchor="middle" x="654" y="-24.2475" font-family="Times New Roman,serif" font-size="14.00">ones</text>
</g>
<!-- 688033622202996491&#45;&gt;&#45;3578972664584123586 -->
<g id="edge32" class="edge"><title>688033622202996491&#45;&gt;&#45;3578972664584123586</title>
<path fill="none" stroke="black" d="M654,-56.0141C654,-64.2034 654,-73.2024 654,-81.4182"/>
<polygon fill="black" stroke="black" points="650.5,-81.6337 654,-91.6338 657.5,-81.6338 650.5,-81.6337"/>
</g>
<!-- &#45;577283038950967534 -->
<g id="node42" class="node"><title>&#45;577283038950967534</title>
<ellipse fill="none" stroke="black" cx="802" cy="-27.9475" rx="27.8951" ry="27.8951"/>
<text text-anchor="middle" x="802" y="-24.2475" font-family="Times New Roman,serif" font-size="14.00">ones</text>
</g>
<!-- &#45;577283038950967534&#45;&gt;&#45;3578972664587618733 -->
<g id="edge33" class="edge"><title>&#45;577283038950967534&#45;&gt;&#45;3578972664587618733</title>
<path fill="none" stroke="black" d="M802,-56.0141C802,-64.2034 802,-73.2024 802,-81.4182"/>
<polygon fill="black" stroke="black" points="798.5,-81.6337 802,-91.6338 805.5,-81.6338 798.5,-81.6337"/>
</g>
<!-- &#45;3905573228718049941 -->
<g id="node43" class="node"><title>&#45;3905573228718049941</title>
<ellipse fill="none" stroke="black" cx="546" cy="-210.041" rx="27.8951" ry="27.8951"/>
<text text-anchor="middle" x="546" y="-206.341" font-family="Times New Roman,serif" font-size="14.00">ones</text>
</g>
<!-- &#45;3905573228718049941&#45;&gt;&#45;3578973925782287458 -->
<g id="edge34" class="edge"><title>&#45;3905573228718049941&#45;&gt;&#45;3578973925782287458</title>
<path fill="none" stroke="black" d="M545.172,-238.12C544.756,-251.73 544.253,-268.186 543.836,-281.835"/>
<polygon fill="black" stroke="black" points="540.33,-281.968 543.523,-292.07 547.327,-282.182 540.33,-281.968"/>
</g>
<!-- &#45;2477199874773430116 -->
<g id="node44" class="node"><title>&#45;2477199874773430116</title>
<ellipse fill="none" stroke="black" cx="931" cy="-210.041" rx="27.8951" ry="27.8951"/>
<text text-anchor="middle" x="931" y="-206.341" font-family="Times New Roman,serif" font-size="14.00">ones</text>
</g>
<!-- &#45;2477199874773430116&#45;&gt;&#45;3578973925783452507 -->
<g id="edge35" class="edge"><title>&#45;2477199874773430116&#45;&gt;&#45;3578973925783452507</title>
<path fill="none" stroke="black" d="M930.172,-238.12C929.756,-251.73 929.253,-268.186 928.836,-281.835"/>
<polygon fill="black" stroke="black" points="925.33,-281.968 928.523,-292.07 932.327,-282.182 925.33,-281.968"/>
</g>
<!-- 5601443249296591425 -->
<g id="node45" class="node"><title>5601443249296591425</title>
<ellipse fill="none" stroke="black" cx="1039" cy="-27.9475" rx="27.8951" ry="27.8951"/>
<text text-anchor="middle" x="1039" y="-24.2475" font-family="Times New Roman,serif" font-size="14.00">ones</text>
</g>
<!-- 5601443249296591425&#45;&gt;&#45;3578973925784617556 -->
<g id="edge36" class="edge"><title>5601443249296591425&#45;&gt;&#45;3578973925784617556</title>
<path fill="none" stroke="black" d="M1039,-56.0141C1039,-64.2034 1039,-73.2024 1039,-81.4182"/>
<polygon fill="black" stroke="black" points="1035.5,-81.6337 1039,-91.6338 1042.5,-81.6338 1035.5,-81.6337"/>
</g>
<!-- 1271787006233232931&#45;&gt;7615837314608944022 -->
<g id="edge37" class="edge"><title>1271787006233232931&#45;&gt;7615837314608944022</title>
<path fill="none" stroke="black" d="M64.4097,-256.092C63.5202,-264.823 62.6133,-273.724 61.8025,-281.681"/>
<polygon fill="black" stroke="black" points="58.2991,-281.538 60.7673,-291.842 65.263,-282.248 58.2991,-281.538"/>
</g>
<!-- 4681270532216099156&#45;&gt;7615837314607778973 -->
<g id="edge39" class="edge"><title>4681270532216099156&#45;&gt;7615837314607778973</title>
<path fill="none" stroke="black" d="M217,-256.379C217,-265.081 217,-273.94 217,-281.854"/>
<polygon fill="black" stroke="black" points="213.5,-281.956 217,-291.956 220.5,-281.956 213.5,-281.956"/>
</g>
<!-- 3734941467144735481&#45;&gt;7615837314606613924 -->
<g id="edge41" class="edge"><title>3734941467144735481&#45;&gt;7615837314606613924</title>
<path fill="none" stroke="black" d="M539.328,-456.384C538.616,-465.115 537.891,-474.016 537.242,-481.973"/>
<polygon fill="black" stroke="black" points="533.738,-481.882 536.414,-492.133 540.715,-482.451 533.738,-481.882"/>
</g>
<!-- &#45;9127939735086499642&#45;&gt;7615836053411945199 -->
<g id="edge43" class="edge"><title>&#45;9127939735086499642&#45;&gt;7615836053411945199</title>
<path fill="none" stroke="black" d="M302.328,-456.384C301.616,-465.115 300.891,-474.016 300.242,-481.973"/>
<polygon fill="black" stroke="black" points="296.738,-481.882 299.414,-492.133 303.715,-482.451 296.738,-481.882"/>
</g>
<!-- &#45;606867696826561499&#45;&gt;7615836053413110248 -->
<g id="edge45" class="edge"><title>&#45;606867696826561499&#45;&gt;7615836053413110248</title>
<path fill="none" stroke="black" d="M686.869,-256.092C686.068,-264.823 685.252,-273.724 684.522,-281.681"/>
<polygon fill="black" stroke="black" points="681.018,-281.564 683.591,-291.842 687.989,-282.203 681.018,-281.564"/>
</g>
<!-- &#45;5207579592425336192&#45;&gt;7615836053414275297 -->
<g id="edge47" class="edge"><title>&#45;5207579592425336192&#45;&gt;7615836053414275297</title>
<path fill="none" stroke="black" d="M924.328,-456.384C923.616,-465.115 922.891,-474.016 922.242,-481.973"/>
<polygon fill="black" stroke="black" points="918.738,-481.882 921.414,-492.133 925.715,-482.451 918.738,-481.882"/>
</g>
<!-- 3471570758706085433&#45;&gt;7615839837002941668 -->
<g id="edge49" class="edge"><title>3471570758706085433&#45;&gt;7615839837002941668</title>
<path fill="none" stroke="black" d="M454,-256.379C454,-265.081 454,-273.94 454,-281.854"/>
<polygon fill="black" stroke="black" points="450.5,-281.956 454,-291.956 457.5,-281.956 450.5,-281.956"/>
</g>
<!-- 2509854651549418858&#45;&gt;7615839837001776619 -->
<g id="edge51" class="edge"><title>2509854651549418858&#45;&gt;7615839837001776619</title>
<path fill="none" stroke="black" d="M839,-256.379C839,-265.081 839,-273.94 839,-281.854"/>
<polygon fill="black" stroke="black" points="835.5,-281.956 839,-291.956 842.5,-281.956 835.5,-281.956"/>
</g>
<!-- 1329554733192624483&#45;&gt;7615839837005271766 -->
<g id="edge53" class="edge"><title>1329554733192624483&#45;&gt;7615839837005271766</title>
<path fill="none" stroke="black" d="M1071.41,-256.092C1070.52,-264.823 1069.61,-273.724 1068.8,-281.681"/>
<polygon fill="black" stroke="black" points="1065.3,-281.538 1067.77,-291.842 1072.26,-282.248 1065.3,-281.538"/>
</g>
</g>
</svg>
